<svg id="visual" viewBox="0 0 2847 4897" width="2847" height="4897" xmlns="http://www.w3.org/2000/svg" xmlns:xlink="http://www.w3.org/1999/xlink" version="1.1"><rect x="0" y="0" width="2847" height="4897" fill="#2c9aee"></rect><defs><linearGradient id="grad1_0" x1="0%" y1="0%" x2="100%" y2="100%"><stop offset="30%" stop-color="#2c9aee" stop-opacity="1"></stop><stop offset="70%" stop-color="#2c9aee" stop-opacity="1"></stop></linearGradient></defs><defs><linearGradient id="grad2_0" x1="0%" y1="0%" x2="100%" y2="100%"><stop offset="30%" stop-color="#2c9aee" stop-opacity="1"></stop><stop offset="70%" stop-color="#2c9aee" stop-opacity="1"></stop></linearGradient></defs><g transform="translate(2847, 0)"><path d="M0 1840.9C-146.6 1789.6 -293.2 1738.2 -459.4 1714.5C-625.6 1690.8 -811.5 1694.8 -914 1583.1C-1016.5 1471.4 -1035.5 1243.9 -1101.7 1101.7C-1167.8 959.5 -1281.1 902.5 -1415.1 817C-1549.1 731.5 -1703.8 617.4 -1778.2 476.5C-1852.6 335.5 -1846.8 167.8 -1840.9 0L0 0Z" fill="#FBAE3C"></path></g><g transform="translate(0, 4897)"><path d="M0 -1840.9C152.2 -1785.3 304.4 -1729.7 443.9 -1656.6C583.4 -1583.4 710.2 -1492.8 799 -1383.9C887.8 -1275 938.7 -1147.9 1082.6 -1082.6C1226.5 -1017.3 1463.4 -1013.9 1594.3 -920.5C1725.2 -827.1 1750 -643.6 1773.4 -475.2C1796.9 -306.8 1818.9 -153.4 1840.9 0L0 0Z" fill="#FBAE3C"></path></g></svg>