<svg id="visual" viewBox="0 0 675 900" width="675" height="900" xmlns="http://www.w3.org/2000/svg" xmlns:xlink="http://www.w3.org/1999/xlink" version="1.1"><rect x="0" y="0" width="675" height="900" fill="#001220"></rect><defs><linearGradient id="grad1_0" x1="0%" y1="0%" x2="100%" y2="100%"><stop offset="30%" stop-color="#001220" stop-opacity="1"></stop><stop offset="70%" stop-color="#001220" stop-opacity="1"></stop></linearGradient></defs><defs><linearGradient id="grad2_0" x1="0%" y1="0%" x2="100%" y2="100%"><stop offset="30%" stop-color="#001220" stop-opacity="1"></stop><stop offset="70%" stop-color="#001220" stop-opacity="1"></stop></linearGradient></defs><g transform="translate(675, 0)"><path d="M0 506.3C-60.7 488.8 -121.3 471.4 -186.7 450.9C-252.2 430.3 -322.3 406.7 -358 358C-393.7 309.2 -394.9 235.3 -413.9 171.4C-432.9 107.6 -469.6 53.8 -506.2 0L0 0Z" fill="#FBAE3C"></path></g><g transform="translate(0, 900)"><path d="M0 -506.2C56.7 -475.7 113.4 -445.1 176 -425C238.7 -404.9 307.4 -395.2 358 -358C408.6 -320.8 441.2 -256 462.9 -191.7C484.6 -127.5 495.4 -63.7 506.3 0L0 0Z" fill="#FBAE3C"></path></g></svg>