<svg id="visual" viewBox="0 0 2894 4093" width="2894" height="4093" xmlns="http://www.w3.org/2000/svg" xmlns:xlink="http://www.w3.org/1999/xlink" version="1.1"><g stroke-width="1" stroke-linejoin="bevel"><path d="M1290.2 2191.9L974.7 1908.1L1002.7 2212.9Z" fill="#002534" stroke="#002534"></path><path d="M1290.2 2191.9L1301.2 1850.1L974.7 1908.1Z" fill="#002534" stroke="#002534"></path><path d="M1301.2 1850.1L1287.2 1613.2L974.7 1908.1Z" fill="#006a65" stroke="#006a65"></path><path d="M1305.2 2530.8L1583.8 2215.9L1290.2 2191.9Z" fill="#002534" stroke="#002534"></path><path d="M1290.2 2191.9L1609.8 1887.1L1301.2 1850.1Z" fill="#002534" stroke="#002534"></path><path d="M1301.2 1850.1L1587.8 1575.2L1287.2 1613.2Z" fill="#00525a" stroke="#00525a"></path><path d="M1583.8 2215.9L1609.8 1887.1L1290.2 2191.9Z" fill="#00826a" stroke="#00826a"></path><path d="M1287.2 1613.2L957.7 1566.2L974.7 1908.1Z" fill="#006a65" stroke="#006a65"></path><path d="M1002.7 2212.9L1305.2 2530.8L1290.2 2191.9Z" fill="#ffe105" stroke="#ffe105"></path><path d="M675.1 1604.2L642.1 1895.1L974.7 1908.1Z" fill="#87c446" stroke="#87c446"></path><path d="M974.7 1908.1L642.1 1895.1L1002.7 2212.9Z" fill="#299a66" stroke="#299a66"></path><path d="M1002.7 2212.9L930.7 2557.8L1305.2 2530.8Z" fill="#002534" stroke="#002534"></path><path d="M614.1 2241.9L930.7 2557.8L1002.7 2212.9Z" fill="#002534" stroke="#002534"></path><path d="M642.1 1895.1L614.1 2241.9L1002.7 2212.9Z" fill="#299a66" stroke="#299a66"></path><path d="M957.7 1566.2L675.1 1604.2L974.7 1908.1Z" fill="#87c446" stroke="#87c446"></path><path d="M1609.8 1887.1L1587.8 1575.2L1301.2 1850.1Z" fill="#002534" stroke="#002534"></path><path d="M1287.2 1613.2L1247.2 1287.4L957.7 1566.2Z" fill="#87c446" stroke="#87c446"></path><path d="M1323.2 2795.6L1582.8 2536.8L1305.2 2530.8Z" fill="#ffe105" stroke="#ffe105"></path><path d="M1305.2 2530.8L1582.8 2536.8L1583.8 2215.9Z" fill="#ffe105" stroke="#ffe105"></path><path d="M1583.8 2215.9L1898.3 1905.1L1609.8 1887.1Z" fill="#003b49" stroke="#003b49"></path><path d="M614.1 2241.9L605.1 2490.8L930.7 2557.8Z" fill="#00826a" stroke="#00826a"></path><path d="M1587.8 1575.2L1247.2 1287.4L1287.2 1613.2Z" fill="#bfd52c" stroke="#bfd52c"></path><path d="M957.7 1566.2L628.1 1245.4L675.1 1604.2Z" fill="#00826a" stroke="#00826a"></path><path d="M955.7 2802.6L1305.2 2530.8L930.7 2557.8Z" fill="#00525a" stroke="#00525a"></path><path d="M955.7 2802.6L1323.2 2795.6L1305.2 2530.8Z" fill="#002534" stroke="#002534"></path><path d="M1934.3 2238.9L1898.3 1905.1L1583.8 2215.9Z" fill="#299a66" stroke="#299a66"></path><path d="M1609.8 1887.1L1898.3 1905.1L1587.8 1575.2Z" fill="#bfd52c" stroke="#bfd52c"></path><path d="M648.1 2820.6L955.7 2802.6L930.7 2557.8Z" fill="#006a65" stroke="#006a65"></path><path d="M1925.3 2483.8L1583.8 2215.9L1582.8 2536.8Z" fill="#00525a" stroke="#00525a"></path><path d="M1925.3 2483.8L1934.3 2238.9L1583.8 2215.9Z" fill="#87c446" stroke="#87c446"></path><path d="M1247.2 1287.4L955.7 1241.4L957.7 1566.2Z" fill="#002534" stroke="#002534"></path><path d="M642.1 1895.1L302.6 2170.9L614.1 2241.9Z" fill="#00525a" stroke="#00525a"></path><path d="M614.1 2241.9L351.6 2525.8L605.1 2490.8Z" fill="#00525a" stroke="#00525a"></path><path d="M310.6 1855.1L302.6 2170.9L642.1 1895.1Z" fill="#00101c" stroke="#00101c"></path><path d="M338.6 1550.2L310.6 1855.1L675.1 1604.2Z" fill="#00826a" stroke="#00826a"></path><path d="M675.1 1604.2L310.6 1855.1L642.1 1895.1Z" fill="#87c446" stroke="#87c446"></path><path d="M1913.3 2830.6L1925.3 2483.8L1582.8 2536.8Z" fill="#006a65" stroke="#006a65"></path><path d="M351.6 2525.8L648.1 2820.6L605.1 2490.8Z" fill="#bfd52c" stroke="#bfd52c"></path><path d="M605.1 2490.8L648.1 2820.6L930.7 2557.8Z" fill="#bfd52c" stroke="#bfd52c"></path><path d="M1298.2 3173.5L1625.8 2848.6L1323.2 2795.6Z" fill="#ffe105" stroke="#ffe105"></path><path d="M1930.3 1543.2L1628.8 1276.4L1587.8 1575.2Z" fill="#00525a" stroke="#00525a"></path><path d="M1587.8 1575.2L1628.8 1276.4L1247.2 1287.4Z" fill="#006a65" stroke="#006a65"></path><path d="M1247.2 1287.4L1001.7 931.5L955.7 1241.4Z" fill="#ffe105" stroke="#ffe105"></path><path d="M302.6 2170.9L351.6 2525.8L614.1 2241.9Z" fill="#00101c" stroke="#00101c"></path><path d="M628.1 1245.4L338.6 1550.2L675.1 1604.2Z" fill="#299a66" stroke="#299a66"></path><path d="M1323.2 2795.6L1625.8 2848.6L1582.8 2536.8Z" fill="#bfd52c" stroke="#bfd52c"></path><path d="M990.7 3119.5L1323.2 2795.6L955.7 2802.6Z" fill="#003b49" stroke="#003b49"></path><path d="M1898.3 1905.1L1930.3 1543.2L1587.8 1575.2Z" fill="#ffe105" stroke="#ffe105"></path><path d="M2253.9 1573.2L1930.3 1543.2L1898.3 1905.1Z" fill="#55b05a" stroke="#55b05a"></path><path d="M955.7 1241.4L628.1 1245.4L957.7 1566.2Z" fill="#bfd52c" stroke="#bfd52c"></path><path d="M648.1 2820.6L990.7 3119.5L955.7 2802.6Z" fill="#00525a" stroke="#00525a"></path><path d="M1644.8 3178.5L1913.3 2830.6L1625.8 2848.6Z" fill="#006a65" stroke="#006a65"></path><path d="M1625.8 2848.6L1913.3 2830.6L1582.8 2536.8Z" fill="#299a66" stroke="#299a66"></path><path d="M2267.9 2171.9L2246.9 1919.1L1934.3 2238.9Z" fill="#55b05a" stroke="#55b05a"></path><path d="M2267.9 2171.9L1934.3 2238.9L2245.9 2488.8Z" fill="#87c446" stroke="#87c446"></path><path d="M1934.3 2238.9L2246.9 1919.1L1898.3 1905.1Z" fill="#00525a" stroke="#00525a"></path><path d="M1253.2 917.5L1001.7 931.5L1247.2 1287.4Z" fill="#ffe105" stroke="#ffe105"></path><path d="M955.7 1241.4L638.1 925.5L628.1 1245.4Z" fill="#299a66" stroke="#299a66"></path><path d="M1930.3 1543.2L1923.3 1236.4L1628.8 1276.4Z" fill="#87c446" stroke="#87c446"></path><path d="M1620.8 964.5L1253.2 917.5L1247.2 1287.4Z" fill="#87c446" stroke="#87c446"></path><path d="M2281.9 1264.4L1923.3 1236.4L1930.3 1543.2Z" fill="#00525a" stroke="#00525a"></path><path d="M1620.8 964.5L1247.2 1287.4L1628.8 1276.4Z" fill="#006a65" stroke="#006a65"></path><path d="M990.7 3119.5L1298.2 3173.5L1323.2 2795.6Z" fill="#002534" stroke="#002534"></path><path d="M2245.9 2488.8L1934.3 2238.9L1925.3 2483.8Z" fill="#006a65" stroke="#006a65"></path><path d="M351.6 2525.8L283.6 2810.6L648.1 2820.6Z" fill="#55b05a" stroke="#55b05a"></path><path d="M648.1 2820.6L674.1 3184.5L990.7 3119.5Z" fill="#55b05a" stroke="#55b05a"></path><path d="M0 2554.8L283.6 2810.6L351.6 2525.8Z" fill="#00101c" stroke="#00101c"></path><path d="M0 2200.9L351.6 2525.8L302.6 2170.9Z" fill="#299a66" stroke="#299a66"></path><path d="M0 1849.1L302.6 2170.9L310.6 1855.1Z" fill="#87c446" stroke="#87c446"></path><path d="M0 1849.1L0 2200.9L302.6 2170.9Z" fill="#299a66" stroke="#299a66"></path><path d="M0 1553.2L310.6 1855.1L338.6 1550.2Z" fill="#006a65" stroke="#006a65"></path><path d="M0 1553.2L0 1849.1L310.6 1855.1Z" fill="#00525a" stroke="#00525a"></path><path d="M343.6 938.5L318.6 1228.4L628.1 1245.4Z" fill="#002534" stroke="#002534"></path><path d="M628.1 1245.4L318.6 1228.4L338.6 1550.2Z" fill="#299a66" stroke="#299a66"></path><path d="M1923.3 1236.4L1620.8 964.5L1628.8 1276.4Z" fill="#002534" stroke="#002534"></path><path d="M2226.9 2802.6L2245.9 2488.8L1925.3 2483.8Z" fill="#00525a" stroke="#00525a"></path><path d="M2547.4 1602.2L2253.9 1573.2L2246.9 1919.1Z" fill="#55b05a" stroke="#55b05a"></path><path d="M2246.9 1919.1L2253.9 1573.2L1898.3 1905.1Z" fill="#299a66" stroke="#299a66"></path><path d="M962.7 659.7L638.1 925.5L1001.7 931.5Z" fill="#002534" stroke="#002534"></path><path d="M1001.7 931.5L638.1 925.5L955.7 1241.4Z" fill="#00525a" stroke="#00525a"></path><path d="M306.6 3166.5L674.1 3184.5L648.1 2820.6Z" fill="#bfd52c" stroke="#bfd52c"></path><path d="M974.7 3495.3L1324.2 3486.3L1298.2 3173.5Z" fill="#002534" stroke="#002534"></path><path d="M0 1294.4L0 1553.2L338.6 1550.2Z" fill="#bfd52c" stroke="#bfd52c"></path><path d="M1324.2 3486.3L1644.8 3178.5L1298.2 3173.5Z" fill="#00101c" stroke="#00101c"></path><path d="M1298.2 3173.5L1644.8 3178.5L1625.8 2848.6Z" fill="#00826a" stroke="#00826a"></path><path d="M1913.3 2830.6L2226.9 2802.6L1925.3 2483.8Z" fill="#55b05a" stroke="#55b05a"></path><path d="M0 2200.9L0 2554.8L351.6 2525.8Z" fill="#006a65" stroke="#006a65"></path><path d="M283.6 2810.6L306.6 3166.5L648.1 2820.6Z" fill="#006a65" stroke="#006a65"></path><path d="M2211.9 3186.5L2226.9 2802.6L1913.3 2830.6Z" fill="#bfd52c" stroke="#bfd52c"></path><path d="M2609.4 2195.9L2594.4 1868.1L2267.9 2171.9Z" fill="#002534" stroke="#002534"></path><path d="M2255.9 934.5L1920.3 941.5L1923.3 1236.4Z" fill="#00101c" stroke="#00101c"></path><path d="M1923.3 1236.4L1920.3 941.5L1620.8 964.5Z" fill="#00826a" stroke="#00826a"></path><path d="M1620.8 964.5L1293.2 659.7L1253.2 917.5Z" fill="#299a66" stroke="#299a66"></path><path d="M0 938.5L0 1294.4L318.6 1228.4Z" fill="#299a66" stroke="#299a66"></path><path d="M318.6 1228.4L0 1294.4L338.6 1550.2Z" fill="#002534" stroke="#002534"></path><path d="M638.1 925.5L343.6 938.5L628.1 1245.4Z" fill="#00826a" stroke="#00826a"></path><path d="M1644.8 3178.5L1922.3 3177.5L1913.3 2830.6Z" fill="#00525a" stroke="#00525a"></path><path d="M1642.8 3483.3L1922.3 3177.5L1644.8 3178.5Z" fill="#00525a" stroke="#00525a"></path><path d="M2253.9 1573.2L2281.9 1264.4L1930.3 1543.2Z" fill="#55b05a" stroke="#55b05a"></path><path d="M2547.4 1602.2L2281.9 1264.4L2253.9 1573.2Z" fill="#003b49" stroke="#003b49"></path><path d="M0 3134.5L306.6 3166.5L283.6 2810.6Z" fill="#002534" stroke="#002534"></path><path d="M0 2554.8L0 2854.6L283.6 2810.6Z" fill="#00826a" stroke="#00826a"></path><path d="M1631.8 602.7L1293.2 659.7L1620.8 964.5Z" fill="#55b05a" stroke="#55b05a"></path><path d="M1253.2 917.5L962.7 659.7L1001.7 931.5Z" fill="#bfd52c" stroke="#bfd52c"></path><path d="M638.1 925.5L616.1 629.7L343.6 938.5Z" fill="#003b49" stroke="#003b49"></path><path d="M1293.2 659.7L962.7 659.7L1253.2 917.5Z" fill="#55b05a" stroke="#55b05a"></path><path d="M974.7 3495.3L990.7 3119.5L674.1 3184.5Z" fill="#006a65" stroke="#006a65"></path><path d="M974.7 3495.3L1298.2 3173.5L990.7 3119.5Z" fill="#002534" stroke="#002534"></path><path d="M672.1 3431.3L974.7 3495.3L674.1 3184.5Z" fill="#00525a" stroke="#00525a"></path><path d="M317.6 3436.3L672.1 3431.3L674.1 3184.5Z" fill="#006a65" stroke="#006a65"></path><path d="M2609.4 2195.9L2267.9 2171.9L2245.9 2488.8Z" fill="#299a66" stroke="#299a66"></path><path d="M2267.9 2171.9L2594.4 1868.1L2246.9 1919.1Z" fill="#003b49" stroke="#003b49"></path><path d="M2594.4 1868.1L2547.4 1602.2L2246.9 1919.1Z" fill="#55b05a" stroke="#55b05a"></path><path d="M2596.4 2539.8L2609.4 2195.9L2245.9 2488.8Z" fill="#00101c" stroke="#00101c"></path><path d="M943.7 293.8L616.1 629.7L962.7 659.7Z" fill="#00826a" stroke="#00826a"></path><path d="M962.7 659.7L616.1 629.7L638.1 925.5Z" fill="#002534" stroke="#002534"></path><path d="M343.6 938.5L0 938.5L318.6 1228.4Z" fill="#006a65" stroke="#006a65"></path><path d="M1930.3 3486.3L1642.8 3483.3L1594.8 3743.2Z" fill="#003b49" stroke="#003b49"></path><path d="M1324.2 3486.3L1642.8 3483.3L1644.8 3178.5Z" fill="#ffe105" stroke="#ffe105"></path><path d="M1920.3 941.5L1631.8 602.7L1620.8 964.5Z" fill="#bfd52c" stroke="#bfd52c"></path><path d="M1293.2 659.7L1318.2 336.8L962.7 659.7Z" fill="#00525a" stroke="#00525a"></path><path d="M1916.3 601.7L1631.8 602.7L1920.3 941.5Z" fill="#87c446" stroke="#87c446"></path><path d="M2226.9 2802.6L2596.4 2539.8L2245.9 2488.8Z" fill="#003b49" stroke="#003b49"></path><path d="M2557.4 2846.6L2596.4 2539.8L2226.9 2802.6Z" fill="#00101c" stroke="#00101c"></path><path d="M2211.9 3186.5L1913.3 2830.6L1922.3 3177.5Z" fill="#003b49" stroke="#003b49"></path><path d="M1930.3 3486.3L2211.9 3186.5L1922.3 3177.5Z" fill="#55b05a" stroke="#55b05a"></path><path d="M0 2854.6L0 3134.5L283.6 2810.6Z" fill="#00826a" stroke="#00826a"></path><path d="M306.6 3166.5L317.6 3436.3L674.1 3184.5Z" fill="#87c446" stroke="#87c446"></path><path d="M2583.4 1239.4L2255.9 934.5L2281.9 1264.4Z" fill="#87c446" stroke="#87c446"></path><path d="M2281.9 1264.4L2255.9 934.5L1923.3 1236.4Z" fill="#00101c" stroke="#00101c"></path><path d="M318.6 620.7L0 938.5L343.6 938.5Z" fill="#ffe105" stroke="#ffe105"></path><path d="M0 3475.3L317.6 3436.3L306.6 3166.5Z" fill="#00525a" stroke="#00525a"></path><path d="M677.1 3760.2L964.7 3745.2L974.7 3495.3Z" fill="#003b49" stroke="#003b49"></path><path d="M2211.9 3186.5L2557.4 2846.6L2226.9 2802.6Z" fill="#00525a" stroke="#00525a"></path><path d="M2265.9 646.7L1916.3 601.7L1920.3 941.5Z" fill="#00101c" stroke="#00101c"></path><path d="M616.1 629.7L318.6 620.7L343.6 938.5Z" fill="#002534" stroke="#002534"></path><path d="M329.6 324.8L318.6 620.7L616.1 629.7Z" fill="#002534" stroke="#002534"></path><path d="M1642.8 3483.3L1930.3 3486.3L1922.3 3177.5Z" fill="#002534" stroke="#002534"></path><path d="M2211.9 3186.5L2578.4 3187.5L2557.4 2846.6Z" fill="#299a66" stroke="#299a66"></path><path d="M1594.8 3743.2L1642.8 3483.3L1324.2 3486.3Z" fill="#ffe105" stroke="#ffe105"></path><path d="M2547.4 1602.2L2583.4 1239.4L2281.9 1264.4Z" fill="#002534" stroke="#002534"></path><path d="M2255.9 934.5L2265.9 646.7L1920.3 941.5Z" fill="#87c446" stroke="#87c446"></path><path d="M2894 1291.4L2583.4 1239.4L2547.4 1602.2Z" fill="#003b49" stroke="#003b49"></path><path d="M2894 1596.2L2547.4 1602.2L2594.4 1868.1Z" fill="#ffe105" stroke="#ffe105"></path><path d="M677.1 3760.2L974.7 3495.3L672.1 3431.3Z" fill="#002534" stroke="#002534"></path><path d="M974.7 3495.3L1272.2 3803.2L1324.2 3486.3Z" fill="#00826a" stroke="#00826a"></path><path d="M1576.8 289.8L1318.2 336.8L1631.8 602.7Z" fill="#ffe105" stroke="#ffe105"></path><path d="M1631.8 602.7L1318.2 336.8L1293.2 659.7Z" fill="#003b49" stroke="#003b49"></path><path d="M1272.2 3803.2L1594.8 3743.2L1324.2 3486.3Z" fill="#299a66" stroke="#299a66"></path><path d="M964.7 3745.2L1272.2 3803.2L974.7 3495.3Z" fill="#00101c" stroke="#00101c"></path><path d="M1318.2 336.8L943.7 293.8L962.7 659.7Z" fill="#299a66" stroke="#299a66"></path><path d="M2894 2240.9L2894 1918.1L2609.4 2195.9Z" fill="#006a65" stroke="#006a65"></path><path d="M2609.4 2195.9L2894 1918.1L2594.4 1868.1Z" fill="#55b05a" stroke="#55b05a"></path><path d="M2894 2240.9L2609.4 2195.9L2894 2486.8Z" fill="#00101c" stroke="#00101c"></path><path d="M2894 2486.8L2609.4 2195.9L2596.4 2539.8Z" fill="#003b49" stroke="#003b49"></path><path d="M348.6 3758.2L677.1 3760.2L672.1 3431.3Z" fill="#003b49" stroke="#003b49"></path><path d="M968.7 4093L1264.2 4093L1272.2 3803.2Z" fill="#002534" stroke="#002534"></path><path d="M2611.4 920.5L2265.9 646.7L2255.9 934.5Z" fill="#55b05a" stroke="#55b05a"></path><path d="M1900.3 318.8L1576.8 289.8L1631.8 602.7Z" fill="#87c446" stroke="#87c446"></path><path d="M0 302.8L0 643.7L318.6 620.7Z" fill="#002534" stroke="#002534"></path><path d="M318.6 620.7L0 643.7L0 938.5Z" fill="#002534" stroke="#002534"></path><path d="M1900.3 318.8L1631.8 602.7L1916.3 601.7Z" fill="#00101c" stroke="#00101c"></path><path d="M1318.2 336.8L1297.2 0L943.7 293.8Z" fill="#bfd52c" stroke="#bfd52c"></path><path d="M2894 2809.6L2894 2486.8L2596.4 2539.8Z" fill="#bfd52c" stroke="#bfd52c"></path><path d="M2894 1918.1L2894 1596.2L2594.4 1868.1Z" fill="#55b05a" stroke="#55b05a"></path><path d="M2583.4 1239.4L2611.4 920.5L2255.9 934.5Z" fill="#00826a" stroke="#00826a"></path><path d="M1930.3 3486.3L2280.9 3456.3L2211.9 3186.5Z" fill="#299a66" stroke="#299a66"></path><path d="M2557.4 2846.6L2894 2809.6L2596.4 2539.8Z" fill="#87c446" stroke="#87c446"></path><path d="M2286.9 3742.2L2280.9 3456.3L1930.3 3486.3Z" fill="#87c446" stroke="#87c446"></path><path d="M0 3134.5L0 3475.3L306.6 3166.5Z" fill="#006a65" stroke="#006a65"></path><path d="M317.6 3436.3L348.6 3758.2L672.1 3431.3Z" fill="#299a66" stroke="#299a66"></path><path d="M955.7 0L673.1 277.8L943.7 293.8Z" fill="#00826a" stroke="#00826a"></path><path d="M943.7 293.8L673.1 277.8L616.1 629.7Z" fill="#87c446" stroke="#87c446"></path><path d="M2280.9 3456.3L2578.4 3187.5L2211.9 3186.5Z" fill="#00101c" stroke="#00101c"></path><path d="M2894 932.5L2611.4 920.5L2583.4 1239.4Z" fill="#bfd52c" stroke="#bfd52c"></path><path d="M0 3475.3L348.6 3758.2L317.6 3436.3Z" fill="#00101c" stroke="#00101c"></path><path d="M968.7 4093L1272.2 3803.2L964.7 3745.2Z" fill="#00525a" stroke="#00525a"></path><path d="M2284.9 284.8L1900.3 318.8L1916.3 601.7Z" fill="#87c446" stroke="#87c446"></path><path d="M2284.9 284.8L1916.3 601.7L2265.9 646.7Z" fill="#ffe105" stroke="#ffe105"></path><path d="M673.1 277.8L329.6 324.8L616.1 629.7Z" fill="#002534" stroke="#002534"></path><path d="M2894 1596.2L2894 1291.4L2547.4 1602.2Z" fill="#87c446" stroke="#87c446"></path><path d="M2894 3173.5L2894 2809.6L2557.4 2846.6Z" fill="#bfd52c" stroke="#bfd52c"></path><path d="M1568.8 4093L1957.3 3780.2L1594.8 3743.2Z" fill="#87c446" stroke="#87c446"></path><path d="M1594.8 3743.2L1957.3 3780.2L1930.3 3486.3Z" fill="#006a65" stroke="#006a65"></path><path d="M2280.9 3456.3L2608.4 3463.3L2578.4 3187.5Z" fill="#003b49" stroke="#003b49"></path><path d="M2286.9 3742.2L2608.4 3463.3L2280.9 3456.3Z" fill="#bfd52c" stroke="#bfd52c"></path><path d="M2578.4 3187.5L2894 3173.5L2557.4 2846.6Z" fill="#00826a" stroke="#00826a"></path><path d="M2894 611.7L2606.4 623.7L2611.4 920.5Z" fill="#002534" stroke="#002534"></path><path d="M2611.4 920.5L2606.4 623.7L2265.9 646.7Z" fill="#ffe105" stroke="#ffe105"></path><path d="M1957.3 3780.2L2286.9 3742.2L1930.3 3486.3Z" fill="#002534" stroke="#002534"></path><path d="M1272.2 3803.2L1568.8 4093L1594.8 3743.2Z" fill="#55b05a" stroke="#55b05a"></path><path d="M1957.3 3780.2L2231.9 4093L2286.9 3742.2Z" fill="#bfd52c" stroke="#bfd52c"></path><path d="M968.7 4093L964.7 3745.2L677.1 3760.2Z" fill="#bfd52c" stroke="#bfd52c"></path><path d="M642.1 4093L968.7 4093L677.1 3760.2Z" fill="#00101c" stroke="#00101c"></path><path d="M1583.8 0L1576.8 289.8L1908.3 0Z" fill="#002534" stroke="#002534"></path><path d="M1583.8 0L1297.2 0L1576.8 289.8Z" fill="#00826a" stroke="#00826a"></path><path d="M1576.8 289.8L1297.2 0L1318.2 336.8Z" fill="#00826a" stroke="#00826a"></path><path d="M673.1 277.8L341.6 0L329.6 324.8Z" fill="#87c446" stroke="#87c446"></path><path d="M1297.2 0L955.7 0L943.7 293.8Z" fill="#006a65" stroke="#006a65"></path><path d="M0 3475.3L0 3763.2L348.6 3758.2Z" fill="#55b05a" stroke="#55b05a"></path><path d="M348.6 3758.2L642.1 4093L677.1 3760.2Z" fill="#00101c" stroke="#00101c"></path><path d="M329.6 324.8L0 302.8L318.6 620.7Z" fill="#00101c" stroke="#00101c"></path><path d="M341.6 0L0 302.8L329.6 324.8Z" fill="#00826a" stroke="#00826a"></path><path d="M2894 1291.4L2894 932.5L2583.4 1239.4Z" fill="#bfd52c" stroke="#bfd52c"></path><path d="M2608.4 3463.3L2894 3173.5L2578.4 3187.5Z" fill="#ffe105" stroke="#ffe105"></path><path d="M1264.2 4093L1568.8 4093L1272.2 3803.2Z" fill="#00101c" stroke="#00101c"></path><path d="M1908.3 0L1576.8 289.8L1900.3 318.8Z" fill="#299a66" stroke="#299a66"></path><path d="M2558.4 337.8L2284.9 284.8L2265.9 646.7Z" fill="#00826a" stroke="#00826a"></path><path d="M349.6 4093L642.1 4093L348.6 3758.2Z" fill="#299a66" stroke="#299a66"></path><path d="M955.7 0L641.1 0L673.1 277.8Z" fill="#299a66" stroke="#299a66"></path><path d="M2240.9 0L1908.3 0L1900.3 318.8Z" fill="#87c446" stroke="#87c446"></path><path d="M0 3763.2L349.6 4093L348.6 3758.2Z" fill="#87c446" stroke="#87c446"></path><path d="M641.1 0L341.6 0L673.1 277.8Z" fill="#87c446" stroke="#87c446"></path><path d="M1568.8 4093L1959.3 4093L1957.3 3780.2Z" fill="#87c446" stroke="#87c446"></path><path d="M2894 3765.2L2894 3470.3L2608.4 3463.3Z" fill="#87c446" stroke="#87c446"></path><path d="M2606.4 623.7L2558.4 337.8L2265.9 646.7Z" fill="#00826a" stroke="#00826a"></path><path d="M2284.9 284.8L2240.9 0L1900.3 318.8Z" fill="#299a66" stroke="#299a66"></path><path d="M2894 312.8L2558.4 337.8L2606.4 623.7Z" fill="#006a65" stroke="#006a65"></path><path d="M2585.4 3808.2L2608.4 3463.3L2286.9 3742.2Z" fill="#00525a" stroke="#00525a"></path><path d="M2608.4 3463.3L2894 3470.3L2894 3173.5Z" fill="#00525a" stroke="#00525a"></path><path d="M2894 932.5L2894 611.7L2611.4 920.5Z" fill="#00101c" stroke="#00101c"></path><path d="M2548.4 4093L2585.4 3808.2L2286.9 3742.2Z" fill="#002534" stroke="#002534"></path><path d="M1959.3 4093L2231.9 4093L1957.3 3780.2Z" fill="#bfd52c" stroke="#bfd52c"></path><path d="M2560.4 0L2284.9 284.8L2558.4 337.8Z" fill="#00826a" stroke="#00826a"></path><path d="M2560.4 0L2240.9 0L2284.9 284.8Z" fill="#00101c" stroke="#00101c"></path><path d="M0 3763.2L0 4093L349.6 4093Z" fill="#ffe105" stroke="#ffe105"></path><path d="M341.6 0L0 0L0 302.8Z" fill="#ffe105" stroke="#ffe105"></path><path d="M2894 4093L2894 3765.2L2585.4 3808.2Z" fill="#bfd52c" stroke="#bfd52c"></path><path d="M2585.4 3808.2L2894 3765.2L2608.4 3463.3Z" fill="#00525a" stroke="#00525a"></path><path d="M2894 611.7L2894 312.8L2606.4 623.7Z" fill="#87c446" stroke="#87c446"></path><path d="M2231.9 4093L2548.4 4093L2286.9 3742.2Z" fill="#299a66" stroke="#299a66"></path><path d="M2894 312.8L2560.4 0L2558.4 337.8Z" fill="#006a65" stroke="#006a65"></path><path d="M2548.4 4093L2894 4093L2585.4 3808.2Z" fill="#299a66" stroke="#299a66"></path><path d="M2894 312.8L2894 0L2560.4 0Z" fill="#55b05a" stroke="#55b05a"></path></g></svg>