<svg id="visual" viewBox="0 0 2894 4093" width="2894" height="4093" xmlns="http://www.w3.org/2000/svg" xmlns:xlink="http://www.w3.org/1999/xlink" version="1.1"><rect x="0" y="0" width="2894" height="4093" fill="#b7c8d5"></rect><defs><linearGradient id="grad1_0" x1="0%" y1="0%" x2="100%" y2="100%"><stop offset="30%" stop-color="#fbae3c" stop-opacity="1"></stop><stop offset="70%" stop-color="#fbae3c" stop-opacity="1"></stop></linearGradient></defs><defs><linearGradient id="grad1_1" x1="0%" y1="0%" x2="100%" y2="100%"><stop offset="30%" stop-color="#fbae3c" stop-opacity="1"></stop><stop offset="70%" stop-color="#bcc757" stop-opacity="1"></stop></linearGradient></defs><defs><linearGradient id="grad1_2" x1="0%" y1="0%" x2="100%" y2="100%"><stop offset="30%" stop-color="#88d28f" stop-opacity="1"></stop><stop offset="70%" stop-color="#bcc757" stop-opacity="1"></stop></linearGradient></defs><defs><linearGradient id="grad1_3" x1="0%" y1="0%" x2="100%" y2="100%"><stop offset="30%" stop-color="#88d28f" stop-opacity="1"></stop><stop offset="70%" stop-color="#73d3c1" stop-opacity="1"></stop></linearGradient></defs><defs><linearGradient id="grad1_4" x1="0%" y1="0%" x2="100%" y2="100%"><stop offset="30%" stop-color="#8fced9" stop-opacity="1"></stop><stop offset="70%" stop-color="#73d3c1" stop-opacity="1"></stop></linearGradient></defs><defs><linearGradient id="grad1_5" x1="0%" y1="0%" x2="100%" y2="100%"><stop offset="30%" stop-color="#8fced9" stop-opacity="1"></stop><stop offset="70%" stop-color="#b7c8d5" stop-opacity="1"></stop></linearGradient></defs><defs><linearGradient id="grad2_0" x1="0%" y1="0%" x2="100%" y2="100%"><stop offset="30%" stop-color="#fbae3c" stop-opacity="1"></stop><stop offset="70%" stop-color="#fbae3c" stop-opacity="1"></stop></linearGradient></defs><defs><linearGradient id="grad2_1" x1="0%" y1="0%" x2="100%" y2="100%"><stop offset="30%" stop-color="#bcc757" stop-opacity="1"></stop><stop offset="70%" stop-color="#fbae3c" stop-opacity="1"></stop></linearGradient></defs><defs><linearGradient id="grad2_2" x1="0%" y1="0%" x2="100%" y2="100%"><stop offset="30%" stop-color="#bcc757" stop-opacity="1"></stop><stop offset="70%" stop-color="#88d28f" stop-opacity="1"></stop></linearGradient></defs><defs><linearGradient id="grad2_3" x1="0%" y1="0%" x2="100%" y2="100%"><stop offset="30%" stop-color="#73d3c1" stop-opacity="1"></stop><stop offset="70%" stop-color="#88d28f" stop-opacity="1"></stop></linearGradient></defs><defs><linearGradient id="grad2_4" x1="0%" y1="0%" x2="100%" y2="100%"><stop offset="30%" stop-color="#73d3c1" stop-opacity="1"></stop><stop offset="70%" stop-color="#8fced9" stop-opacity="1"></stop></linearGradient></defs><defs><linearGradient id="grad2_5" x1="0%" y1="0%" x2="100%" y2="100%"><stop offset="30%" stop-color="#b7c8d5" stop-opacity="1"></stop><stop offset="70%" stop-color="#8fced9" stop-opacity="1"></stop></linearGradient></defs><g transform="translate(2894, 0)"><path d="M0 2255.7C-302.7 2041.6 -605.4 1827.4 -962 1666.2C-1318.6 1505 -1728.9 1396.8 -1953.5 1127.9C-2178.1 859 -2216.9 429.5 -2255.7 0L0 0Z" fill="#a5cbda"></path><path d="M0 1879.8C-252.3 1701.3 -504.5 1522.9 -801.7 1388.5C-1098.8 1254.2 -1440.8 1164 -1627.9 939.9C-1815.1 715.8 -1847.4 357.9 -1879.8 0L0 0Z" fill="#7cd1d1"></path><path d="M0 1503.8C-201.8 1361.1 -403.6 1218.3 -641.3 1110.8C-879 1003.3 -1152.6 931.2 -1302.4 751.9C-1452.1 572.7 -1478 286.3 -1503.8 0L0 0Z" fill="#77d3aa"></path><path d="M0 1127.9C-151.4 1020.8 -302.7 913.7 -481 833.1C-659.3 752.5 -864.5 698.4 -976.8 563.9C-1089.1 429.5 -1108.5 214.7 -1127.9 0L0 0Z" fill="#a0cd72"></path><path d="M0 751.9C-100.9 680.5 -201.8 609.1 -320.7 555.4C-439.5 501.7 -576.3 465.6 -651.2 376C-726 286.3 -739 143.2 -751.9 0L0 0Z" fill="#dbbc43"></path><path d="M0 376C-50.5 340.3 -100.9 304.6 -160.3 277.7C-219.8 250.8 -288.2 232.8 -325.6 188C-363 143.2 -369.5 71.6 -376 0L0 0Z" fill="#fbae3c"></path></g><g transform="translate(0, 4093)"><path d="M0 -2255.7C411.8 -2206.7 823.7 -2157.7 1127.9 -1953.5C1432.1 -1749.3 1628.7 -1390 1798.7 -1038.5C1968.8 -687 2112.3 -343.5 2255.7 0L0 0Z" fill="#a5cbda"></path><path d="M0 -1879.8C343.2 -1838.9 686.4 -1798.1 939.9 -1627.9C1193.4 -1457.8 1357.2 -1158.3 1498.9 -865.4C1640.6 -572.5 1760.2 -286.3 1879.8 0L0 0Z" fill="#7cd1d1"></path><path d="M0 -1503.8C274.6 -1471.2 549.1 -1438.5 751.9 -1302.4C954.7 -1166.2 1085.8 -926.6 1199.2 -692.3C1312.5 -458 1408.2 -229 1503.8 0L0 0Z" fill="#77d3aa"></path><path d="M0 -1127.9C205.9 -1103.4 411.8 -1078.9 563.9 -976.8C716 -874.7 814.3 -695 899.4 -519.3C984.4 -343.5 1056.1 -171.8 1127.9 0L0 0Z" fill="#a0cd72"></path><path d="M0 -751.9C137.3 -735.6 274.6 -719.2 376 -651.2C477.4 -583.1 542.9 -463.3 599.6 -346.2C656.3 -229 704.1 -114.5 751.9 0L0 0Z" fill="#dbbc43"></path><path d="M0 -376C68.6 -367.8 137.3 -359.6 188 -325.6C238.7 -291.6 271.4 -231.7 299.8 -173.1C328.1 -114.5 352 -57.3 376 0L0 0Z" fill="#fbae3c"></path></g></svg>